<svg xmlns="http://www.w3.org/2000/svg" viewBox="0 0 360 92" role="img" aria-labelledby="title desc">
  <title id="title">Shogun Command System</title>
  <desc id="desc">Geometryczny znak systemu Shogun inspirowany interfejsem kokpitu.</desc>
  <defs>
    <linearGradient id="blade" x1="0" y1="0" x2="1" y2="1"><stop offset="0" stop-color="#79e6ff"/><stop offset="1" stop-color="#159bc5"/></linearGradient>
    <filter id="glow" x="-40%" y="-40%" width="180%" height="180%"><feGaussianBlur stdDeviation="2.2" result="blur"/><feMerge><feMergeNode in="blur"/><feMergeNode in="SourceGraphic"/></feMerge></filter>
  </defs>
  <g transform="translate(6 8)">
    <path d="M38 0 72 14 78 38 70 63 38 76 6 63 0 38 7 14Z" fill="#071222" stroke="#45d5ff" stroke-opacity=".35"/>
    <path d="M38 7 65 18 70 38 63 58 38 69 13 58 6 38 13 18Z" fill="none" stroke="#45d5ff" stroke-width="1.3" stroke-dasharray="13 5"/>
    <circle cx="38" cy="38" r="21" fill="#09182a" stroke="#45d5ff" stroke-width="1.5"/>
    <path d="M22 27h32l-6 8H28Zm6 13h20l8 14H45l-7-8-7 8H20Z" fill="url(#blade)" filter="url(#glow)"/>
    <path d="M38 17v9M38 50v9M17 38h8M51 38h8" stroke="#ff4057" stroke-width="2"/>
    <circle cx="38" cy="38" r="3" fill="#ff4057" filter="url(#glow)"/>
  </g>
  <g transform="translate(98 17)">
    <text x="0" y="33" fill="#e6f4ff" font-family="Segoe UI, Arial, sans-serif" font-size="33" font-weight="700" letter-spacing="7">SHOGUN</text>
    <path d="M1 43h238" stroke="#45d5ff" stroke-opacity=".5"/><path d="M1 43h54" stroke="#45d5ff" stroke-width="2"/>
    <text x="1" y="59" fill="#89a3b8" font-family="Consolas, monospace" font-size="9" letter-spacing="3.2">COMMAND SYSTEM</text>
    <text x="196" y="59" fill="#ff4057" font-family="Consolas, monospace" font-size="8" letter-spacing="1.5">PJATK</text>
  </g>
</svg>
